<svg xmlns="http://www.w3.org/2000/svg" viewBox="0 0 128 128" role="img" aria-label="Logo MJ Informática (placeholder)">
  <defs>
    <linearGradient id="g" x1="0" y1="0" x2="1" y2="1">
      <stop offset="0" stop-color="#2dd4ff"/>
      <stop offset="1" stop-color="#00d084"/>
    </linearGradient>
  </defs>
  <rect x="8" y="8" width="112" height="112" rx="26" fill="rgba(255,255,255,0.08)" stroke="rgba(255,255,255,0.18)" stroke-width="2"/>
  <path d="M38 54c0-9 7-16 16-16h20c9 0 16 7 16 16v20c0 9-7 16-16 16H54c-9 0-16-7-16-16V54z" fill="url(#g)" opacity="0.95"/>
  <path d="M48 52h32v4H48zm0 10h32v4H48zm0 10h22v4H48z" fill="#062137" opacity="0.85"/>
  <circle cx="88" cy="74" r="12" fill="rgba(6,33,55,0.75)"/>
  <path d="M88 66a6 6 0 0 0-6 6v6h12v-6a6 6 0 0 0-6-6zm-3 6a3 3 0 0 1 6 0v2h-6z" fill="#eaf2ff"/>
</svg>
